# xmcd
#
# Track frame offsets: 
#        150
#        13401
#        26794
#        35651
#        45601
#        55375
#        62412
#        72162
#        82688
#        94247
#        103798
#        113689
#        126000
#        141471
#        157072
#        171826
#        181130
#        196954
#        206704
#        218392
#        232055
#        243226
#        252800
#        265370
#        274262
#        289921
#        304407
#        317224
#        330240
#        341166
#
# Disc length: 4722 seconds
#
# Revision: 0
# Processed by: cddbd v1.5.2PL0 Copyright (c) Steve Scherf et al.
# Submitted via: ExactAudioCopy v1.3
#
DISCID=c512701e
DTITLE=Marty Robbins - Devil Woman 1961-1962 [CD1]
DYEAR=2017
DGENRE=Country
TTITLE0=A Little Sentimental
TTITLE1=Hurt
TTITLE2=To Each His Own
TTITLE3=I Can’t Help It (If I’m Still In Love With You)
TTITLE4=Answer Me, My Love
TTITLE5=Clara
TTITLE6=Half As Much
TTITLE7=Unchained Melody
TTITLE8=Are You Sincere
TTITLE9=Guess I’ll Be Going
TTITLE10=To Think You’ve Chosen Me
TTITLE11=Too Young
TTITLE12=I’m In The Mood For Love
TTITLE13=Misty
TTITLE14=Looking Back
TTITLE15=September In The Rain
TTITLE16=Don’t Throw Me Away
TTITLE17=Pennies From Heaven
TTITLE18=Summertime
TTITLE19=All The Way
TTITLE20=It Had To Be You
TTITLE21=I’m Having A Ball
TTITLE22=If I Could Cry
TTITLE23=On The Sunny Side Of The Street
TTITLE24=Jimmy Martinez
TTITLE25=Ghost Train
TTITLE26=It’s Your World
TTITLE27=You Told Me So
TTITLE28=Sometimes I’m Tempted
TTITLE29=I Told The Brook
EXTD=
EXTT0=
EXTT1=
EXTT2=
EXTT3=
EXTT4=
EXTT5=
EXTT6=
EXTT7=
EXTT8=
EXTT9=
EXTT10=
EXTT11=
EXTT12=
EXTT13=
EXTT14=
EXTT15=
EXTT16=
EXTT17=
EXTT18=
EXTT19=
EXTT20=
EXTT21=
EXTT22=
EXTT23=
EXTT24=
EXTT25=
EXTT26=
EXTT27=
EXTT28=
EXTT29=
PLAYORDER=
